<svg width="51" height="51" viewBox="0 0 51 51" fill="none" xmlns="http://www.w3.org/2000/svg">
<path fill-rule="evenodd" clip-rule="evenodd" d="M41.2856 5.305C38.7279 4.26045 35.9289 3.68477 32.9954 3.68477C20.8777 3.68477 11.0543 13.5081 11.0543 25.6259C11.0543 37.7436 20.8777 47.567 32.9954 47.567C35.5679 47.567 38.037 47.1243 40.3307 46.3108C36.1683 49.2132 31.0973 50.9168 25.6259 50.9168C11.4731 50.9168 1.90735e-06 39.5187 1.90735e-06 25.4584C1.90735e-06 11.3981 11.4731 0 25.6259 0C31.5231 0 36.9551 1.97901 41.2856 5.305Z" fill="#00C2FF"/>
<path fill-rule="evenodd" clip-rule="evenodd" d="M9.71438 45.6118C12.2721 46.6563 15.0711 47.232 18.0046 47.232C30.1223 47.232 39.9457 37.4086 39.9457 25.2909C39.9457 13.1732 30.1223 3.34979 18.0046 3.34979C15.4321 3.34979 12.963 3.79251 10.6693 4.60592C14.8317 1.70356 19.9027 1.09608e-06 25.3741 1.57441e-06C39.5269 2.81169e-06 51 11.3981 51 25.4584C51 39.5187 39.5269 50.9168 25.3741 50.9168C19.4769 50.9168 14.0449 48.9378 9.71438 45.6118Z" fill="#6C76E6"/>
<path fill-rule="evenodd" clip-rule="evenodd" d="M5.30499 9.71438C4.26045 12.2721 3.68477 15.0711 3.68477 18.0046C3.68477 30.1223 13.5081 39.9457 25.6259 39.9457C37.7436 39.9457 47.567 30.1223 47.567 18.0046C47.567 15.4321 47.1242 12.963 46.3108 10.6693C49.2132 14.8317 50.9168 19.9026 50.9168 25.3741C50.9168 39.5269 39.5187 51 25.4584 51C11.3981 51 1.40584e-06 39.5269 7.87206e-07 25.3741C5.2943e-07 19.4769 1.979 14.0449 5.30499 9.71438Z" fill="#333946"/>
</svg>
